<?xml version="1.0" encoding="utf-8"?>
<!-- Generator: Adobe Illustrator 14.0.0, SVG Export Plug-In . SVG Version: 6.00 Build 43363)  -->
<!DOCTYPE svg PUBLIC "-//W3C//DTD SVG 1.1//EN" "http://www.w3.org/Graphics/SVG/1.1/DTD/svg11.dtd">
<svg version="1.1" id="Ebene_1" xmlns="http://www.w3.org/2000/svg" xmlns:xlink="http://www.w3.org/1999/xlink" x="0px" y="0px"
	 width="12px" height="12px" viewBox="0 0 12 12" style="enable-background:new 0 0 12 12;" xml:space="preserve">
<path style="fill:#999999;" d="M6,0C2.7,0,0,2.7,0,6c0,3.3,2.7,6,6,6c3.3,0,6-2.7,6-6C12,2.7,9.3,0,6,0z M9.2,7.9
	c0.2,0.2,0.2,0.6,0,0.8L8.8,9.2C8.6,9.4,8.2,9.4,8,9.2L6,7.3L4,9.2c-0.2,0.2-0.6,0.2-0.8,0L2.8,8.8c-0.2-0.2-0.2-0.6,0-0.8l1.9-2
	L2.8,4c-0.2-0.2-0.2-0.6,0-0.8l0.4-0.4c0.2-0.2,0.6-0.2,0.8,0L6,4.7l2-1.9c0.2-0.2,0.6-0.2,0.8,0l0.4,0.4c0.2,0.2,0.2,0.6,0,0.8
	L7.3,6L9.2,7.9z"/>
</svg>
