<?xml version="1.0" encoding="utf-8"?>
<!-- Generator: Adobe Illustrator 15.0.0, SVG Export Plug-In . SVG Version: 6.00 Build 0)  -->
<!DOCTYPE svg PUBLIC "-//W3C//DTD SVG 1.1//EN" "http://www.w3.org/Graphics/SVG/1.1/DTD/svg11.dtd">
<svg version="1.1" id="Ebene_1" xmlns="http://www.w3.org/2000/svg" xmlns:xlink="http://www.w3.org/1999/xlink" x="0px" y="0px"
	 width="1200px" height="61px" viewBox="0 0 1200 61" enable-background="new 0 0 1200 61" xml:space="preserve">
<g>
	<path fill="#999999" d="M616.302,17.451c-2.232-3.83-5.268-6.862-9.098-9.098C603.373,6.117,599.191,5,594.655,5
		s-8.722,1.117-12.55,3.353c-3.829,2.235-6.862,5.268-9.101,9.098c-2.233,3.831-3.353,8.014-3.353,12.549s1.115,8.719,3.353,12.549
		s5.271,6.863,9.101,9.1c3.828,2.234,8.014,3.354,12.549,3.354s8.719-1.117,12.549-3.354c3.831-2.233,6.863-5.27,9.098-9.1
		c2.235-3.83,3.354-8.014,3.354-12.549C619.654,25.464,618.536,21.281,616.302,17.451z M610.865,31.497l-11.784,11.784l-2.962,2.963
		c-0.391,0.39-0.878,0.585-1.465,0.585c-0.585,0-1.074-0.195-1.465-0.585l-2.965-2.963l-11.782-11.784
		c-0.393-0.392-0.585-0.878-0.585-1.465c0-0.586,0.192-1.074,0.585-1.467l2.962-2.961c0.413-0.412,0.897-0.619,1.465-0.619
		c0.562,0,1.053,0.207,1.465,0.619l6.152,6.151v-16.34c0-0.563,0.206-1.053,0.619-1.465c0.409-0.413,0.897-0.619,1.465-0.619h4.167
		c0.562,0,1.052,0.206,1.464,0.619c0.412,0.412,0.619,0.899,0.619,1.465v16.341l6.149-6.152c0.394-0.391,0.878-0.586,1.464-0.586
		c0.588,0,1.074,0.195,1.468,0.586l2.962,2.963c0.391,0.392,0.586,0.879,0.586,1.466C611.451,30.619,611.256,31.107,610.865,31.497z
		"/>
</g>
</svg>
